<svg width="792" height="792" viewBox="0 0 792 792" fill="none" xmlns="http://www.w3.org/2000/svg">
<path fill-rule="evenodd" clip-rule="evenodd" d="M238.87 729.681C217.436 729.68 197.63 718.245 186.912 699.682L39.104 443.693C29.4455 426.965 28.4896 406.74 36.2363 389.319H35.8543L38.9518 383.954C39.002 383.867 39.0523 383.779 39.1029 383.691L206.889 93.0772C217.607 74.5124 237.416 63.0764 258.853 63.0771L554.45 63.0878C575.884 63.0885 595.69 74.5235 606.408 93.0859L754.216 349.075C759.74 358.643 762.418 369.356 762.248 380.033C762.088 390.073 759.411 400.081 754.217 409.078L583.182 705.32L582.99 704.987C571.777 720.407 553.783 729.692 534.467 729.691L238.87 729.681ZM733.432 397.077C735.326 393.797 736.662 390.293 737.441 386.696C738.314 382.659 738.485 378.507 737.954 374.425C737.351 369.794 735.843 365.254 733.432 361.077L606.41 141.087C595.647 122.446 568.763 122.421 557.957 141.011L557.913 141.087L431.909 359.332L431.865 359.408C425.478 370.533 425.493 384.22 431.91 395.333L583.181 657.32L733.432 397.077ZM379.947 365.332L77.4226 365.321L227.674 105.078C234.105 93.9395 245.99 87.0779 258.852 87.0784L512.881 87.0875C534.405 87.0882 547.868 110.358 537.172 129.011L411.081 347.408C404.64 358.502 392.779 365.332 379.947 365.332ZM235.462 651.589C224.649 670.162 197.778 670.131 187.019 651.496L59.9984 431.509C49.2201 412.842 62.6923 389.507 84.2476 389.508L338.272 389.517C359.789 389.518 373.25 412.769 362.577 431.419L362.521 431.515L362.52 431.517L235.462 651.589ZM383.362 443.418C394.176 424.849 421.043 424.881 431.802 443.515L558.823 663.502C569.601 682.169 556.129 705.504 534.573 705.503L280.548 705.494C259.032 705.493 245.571 682.242 256.244 663.592L256.3 663.495L256.301 663.494L383.305 443.517L383.305 443.515L383.362 443.418Z" fill="url(#paint0_linear_44172_14495)"/>
<path fill-rule="evenodd" clip-rule="evenodd" d="M554.45 63.077C575.885 63.0777 595.691 74.5127 606.409 93.0751L754.216 349.065C763.875 365.792 764.831 386.018 757.084 403.438H757.466L754.374 408.794C754.322 408.885 754.27 408.976 754.218 409.066L586.431 699.68C575.713 718.245 555.904 729.681 534.468 729.68L238.871 729.67C217.436 729.669 197.63 718.234 186.912 699.672L39.1045 443.682C37.9321 441.652 36.8879 439.57 35.972 437.448C31.654 427.442 30.1857 416.542 31.5672 405.929C32.5719 398.209 35.0838 390.641 39.1034 383.679L210.138 87.4381L210.33 87.7702C221.543 72.351 239.537 63.0657 258.853 63.0664L554.45 63.077ZM59.888 395.68C57.9917 398.965 56.6545 402.474 55.8766 406.076C54.6759 411.635 54.8073 417.413 56.2709 422.924C57.0749 425.95 58.281 428.896 59.8887 431.68L186.911 651.671C197.673 670.309 224.551 670.336 235.36 651.753L235.408 651.67L361.411 433.426L361.46 433.341C367.842 422.218 367.826 408.535 361.411 397.425L210.14 135.437L59.888 395.68ZM413.374 427.426L715.898 427.437L565.647 687.679C559.216 698.818 547.33 705.68 534.468 705.679L280.44 705.67C258.918 705.669 245.455 682.406 256.144 663.753L382.245 445.341C388.686 434.252 400.544 427.425 413.374 427.426ZM557.856 141.174C568.667 122.596 595.541 122.625 606.302 141.261L733.322 361.249C744.1 379.916 730.628 403.25 709.073 403.25L455.048 403.241C433.53 403.24 420.068 379.985 430.746 361.334L430.8 361.242L430.8 361.241L557.856 141.174ZM409.962 349.334C399.149 367.908 372.278 367.878 361.518 349.243L234.498 129.256C223.72 110.588 237.192 87.2539 258.747 87.2546L512.772 87.2637C534.292 87.2645 547.754 110.523 537.071 129.174L537.02 129.262L537.02 129.264L409.962 349.334Z" fill="url(#paint1_linear_44172_14495)"/>
<defs>
<linearGradient id="paint0_linear_44172_14495" x1="205" y1="730" x2="590.5" y2="63" gradientUnits="userSpaceOnUse">
<stop stop-color="#A50AFF"/>
<stop offset="0.484375" stop-color="#C00AC0" stop-opacity="0.13"/>
</linearGradient>
<linearGradient id="paint1_linear_44172_14495" x1="205" y1="729.989" x2="590.5" y2="62.9892" gradientUnits="userSpaceOnUse">
<stop stop-color="#A50AFF"/>
<stop offset="1" stop-color="#DF0979"/>
</linearGradient>
</defs>
</svg>
